<svg width="24" height="24" viewBox="0 0 24 24" fill="none" xmlns="http://www.w3.org/2000/svg">
<g clip-path="url(#clip0_22_163)">
<path d="M4.59852 0.305861C3.98023 -0.0663303 3.24335 -0.0996118 2.60069 0.210235L13.3759 11.0085L16.8991 7.4689L4.59852 0.305861ZM1.61068 1.20962C1.47474 1.49743 1.40161 1.81759 1.40161 2.14713V21.8995C1.40161 22.2304 1.47521 22.5459 1.61255 22.8276L12.3836 12.0055L1.61068 1.20962ZM13.3774 13.0011L2.61948 23.8102C2.90495 23.9423 3.20871 24 3.51199 24C3.88653 24 4.26012 23.9105 4.59856 23.707L16.9015 16.5332L13.3774 13.0011ZM21.5839 10.1971C21.5797 10.1942 21.575 10.1914 21.5708 10.1891L18.1554 8.20016L14.3693 12.0041L18.1578 15.8005C18.1578 15.8005 21.5797 13.8055 21.5839 13.8032C22.219 13.4174 22.5983 12.7433 22.5983 11.9999C22.5983 11.2564 22.219 10.5824 21.5839 10.1971Z" fill="white"/>
</g>
<defs>
<clipPath id="clip0_22_163">
<rect width="24" height="24" fill="white"/>
</clipPath>
</defs>
</svg>
