<svg width="14" height="14" viewBox="0 0 14 14" fill="none" xmlns="http://www.w3.org/2000/svg">
<g clip-path="url(#clip0_2268_875)">
<path d="M11.1289 8.25781C10.1538 8.25781 9.29089 8.74653 8.77174 9.49175L5.59625 7.90401C5.69081 7.61964 5.74219 7.31571 5.74219 7C5.74219 6.68429 5.69081 6.38036 5.59625 6.09599L8.77174 4.50825C9.29089 5.25347 10.1538 5.74219 11.1289 5.74219C12.712 5.74219 14 4.45422 14 2.87109C14 1.28797 12.712 0 11.1289 0C9.54578 0 8.25781 1.28797 8.25781 2.87109C8.25781 3.1868 8.30919 3.49073 8.40375 3.77511L5.22826 5.36285C4.70911 4.61762 3.84617 4.12891 2.87109 4.12891C1.28797 4.12891 0 5.41688 0 7C0 8.58312 1.28797 9.87109 2.87109 9.87109C3.84617 9.87109 4.70911 9.38238 5.22826 8.63715L8.40375 10.2249C8.30919 10.5093 8.25781 10.8132 8.25781 11.1289C8.25781 12.712 9.54578 14 11.1289 14C12.712 14 14 12.712 14 11.1289C14 9.54578 12.712 8.25781 11.1289 8.25781ZM11.1289 0.820312C12.2597 0.820312 13.1797 1.74029 13.1797 2.87109C13.1797 4.00189 12.2597 4.92188 11.1289 4.92188C9.99811 4.92188 9.07812 4.00189 9.07812 2.87109C9.07812 1.74029 9.99811 0.820312 11.1289 0.820312ZM2.87109 9.05078C1.74029 9.05078 0.820312 8.1308 0.820312 7C0.820312 5.8692 1.74029 4.94922 2.87109 4.94922C4.00189 4.94922 4.92188 5.8692 4.92188 7C4.92188 8.1308 4.00189 9.05078 2.87109 9.05078ZM11.1289 13.1797C9.99811 13.1797 9.07812 12.2597 9.07812 11.1289C9.07812 9.99811 9.99811 9.07812 11.1289 9.07812C12.2597 9.07812 13.1797 9.99811 13.1797 11.1289C13.1797 12.2597 12.2597 13.1797 11.1289 13.1797Z" fill="#888888"/>
</g>
<defs>
<clipPath id="clip0_2268_875">
<rect width="14" height="14" fill="white"/>
</clipPath>
</defs>
</svg>
